# xmcd CD database file
#
# Track frame offsets:
#	150
#	23752
#	46260
#
# Disc length: 927 seconds
#
# Revision: 1
# Processed by: cddbd v1.5.1PL2 Copyright (c) Steve Scherf et al.
# Submitted via: CDex 1.60beta1-cs1
#
DISCID=19039d03
DTITLE=広末涼子 - 風のプリズム
DYEAR=1997
DGENRE=JPop
TTITLE0=風のプリズム
TTITLE1=風のプリズム ～unplugged～
TTITLE2=風のプリズム ～instrumental～
EXTD=YEAR: 1997
EXTT0=
EXTT1=
EXTT2=
PLAYORDER=
